/* XPM */
static char * ellipse_xpm[] = {
"22 22 36 1",
" 	c None",
".	c #000000",
"+	c #ECECEC",
"@	c #EAEAEA",
"#	c #D8D8D8",
"$	c #DFDFDF",
"%	c #020202",
"&	c #262626",
"*	c #1C1C1C",
"=	c #030303",
"-	c #DBDBDB",
";	c #F0F0F0",
">	c #909090",
",	c #818181",
"'	c #5E5E5E",
")	c #707070",
"!	c #161616",
"~	c #A5A5A5",
"{	c #CECECE",
"]	c #484848",
"^	c #333333",
"/	c #E5E5E5",
"(	c #F5F5F5",
"_	c #0E0E0E",
":	c #EDEDED",
"<	c #1B1B1B",
"[	c #0F0F0F",
"}	c #9A9A9A",
"|	c #E6E6E6",
"1	c #737373",
"2	c #808080",
"3	c #494949",
"4	c #6E6E6E",
"5	c #727272",
"6	c #343434",
"7	c #D5D5D5",
"                      ",
"                      ",
"                      ",
"       .+@..+#        ",
"     $%&     *=-      ",
"    ;>         ,@     ",
"   .'           ).    ",
"  .!             ~{   ",
"  .]             ^/   ",
"  (              _.   ",
"  :              <.   ",
"  .               /   ",
"  .[             }{   ",
"   |1           ..    ",
"    @23        4@     ",
"     .=56    ..-      ",
"       7|..@|.        ",
"                      ",
"                      ",
"                      ",
"                      ",
"                      "};
