/* XPM */
static char * linedicke1_dashed_dotted_xpm[] = {
"40 22 5 1",
" 	c None",
".	c #FF0000",
"+	c #FE0000",
"@	c #000000",
"#	c #FC0000",
"                                        ",
"                                        ",
"                                        ",
"                                        ",
"                                        ",
"                                        ",
"....     ++++     ....     ++++     ....",
"@@@@   @@@@@@@@   @@@@   @@@@@@@@   @@@@",
"@@@@   @@@@@@@@   @@@@   @@@@@@@@   @@@@",
"@@@@  @@@@@@@@@@  @@@@  @@@@@@@@@@  @@@@",
"@@@@  @@@@@@@@@@  @@@@  @@@@@@@@@@  @@@@",
"@@@@  @@@@@@@@@@  @@@@  @@@@@@@@@@  @@@@",
"@@@@  @@@@@@@@@@  @@@@  @@@@@@@@@@  @@@@",
"@@@@   @@@@@@@@   @@@@   @@@@@@@@   @@@@",
"@@@@   @@@@@@@@   @@@@   @@@@@@@@   @@@@",
"....     +++#     ....     +++#     ....",
"                                        ",
"                                        ",
"                                        ",
"                                        ",
"                                        ",
"                                        "};
