/* XPM */
static char * linedicke2_dashed_xpm[] = {
"40 22 3 1",
" 	c None",
".	c #FF0000",
"+	c #000000",
"                                        ",
"                                        ",
"                                        ",
"                                        ",
"                                        ",
"                                        ",
"                                        ",
"....  ....  ....  ....  ....  ....  ....",
"++++  ++++  ++++  ++++  ++++  ++++  ++++",
"++++  ++++  ++++  ++++  ++++  ++++  ++++",
"++++  ++++  ++++  ++++  ++++  ++++  ++++",
"++++  ++++  ++++  ++++  ++++  ++++  ++++",
"++++  ++++  ++++  ++++  ++++  ++++  ++++",
"++++  ++++  ++++  ++++  ++++  ++++  ++++",
"....  ....  ....  ....  ....  ....  ....",
"                                        ",
"                                        ",
"                                        ",
"                                        ",
"                                        ",
"                                        ",
"                                        "};
