/* XPM */
static char * paint_xpm[] = {
"22 22 90 1",
" 	c None",
".	c #000000",
"+	c #B98B64",
"@	c #C39368",
"#	c #8C5D30",
"$	c #42280E",
"%	c #785432",
"&	c #C79E74",
"*	c #8D6134",
"=	c #703E0A",
"-	c #130C04",
";	c #3D332B",
">	c #CAAC8F",
",	c #A27B54",
"'	c #744210",
")	c #4D2905",
"!	c #604C3A",
"~	c #C3A990",
"{	c #A1876B",
"]	c #502C06",
"^	c #3E2004",
"/	c #151515",
"(	c #EAEAEA",
"_	c #4F4F4F",
":	c #302D29",
"<	c #A78E76",
"[	c #6A5641",
"}	c #2F1A06",
"|	c #D0D0D0",
"1	c #E6E6E6",
"2	c #ADADAD",
"3	c #3D3D3D",
"4	c #282320",
"5	c #24170A",
"6	c #939393",
"7	c #FBFBFB",
"8	c #CECECE",
"9	c #999999",
"0	c #727272",
"a	c #373737",
"b	c #4A4A4A",
"c	c #F5F5F5",
"d	c #F3F3F3",
"e	c #AEAEAE",
"f	c #787878",
"g	c #494949",
"h	c #D9D9D9",
"i	c #F8F8F8",
"j	c #C4C4C4",
"k	c #818181",
"l	c #575757",
"m	c #0B0B0B",
"n	c #262626",
"o	c #B5B5B5",
"p	c #8C8C8C",
"q	c #555555",
"r	c #191919",
"s	c #8B8B8B",
"t	c #7D7D7D",
"u	c #131313",
"v	c #A9A9A9",
"w	c #848484",
"x	c #525252",
"y	c #363636",
"z	c #C8C8C8",
"A	c #9F9F9F",
"B	c #505050",
"C	c #B2B2B2",
"D	c #A2A2A2",
"E	c #7F7F7F",
"F	c #282828",
"G	c #2F2F2F",
"H	c #313131",
"I	c #070707",
"J	c #6C6C6C",
"K	c #777777",
"L	c #212121",
"M	c #1B1B1B",
"N	c #4C4C4C",
"O	c #2A2A2A",
"P	c #B7B7B7",
"Q	c #696969",
"R	c #515151",
"S	c #343434",
"T	c #4E4E4E",
"U	c #353535",
"V	c #2C2C2C",
"W	c #5D5D5D",
"X	c #1D1D1D",
"Y	c #030303",
"                      ",
"                      ",
"                      ",
"               .+@#   ",
"              $%&*=   ",
"             -;>,')   ",
"             .!~{]^   ",
"            /(_:<[}   ",
"           .|12345.   ",
"           67890a.    ",
"          bcdefg.     ",
"         _hijklm      ",
"        n|hopq.       ",
"      rstuvwxm        ",
"     yz|AByl..        ",
"    .CDEFGH.I         ",
"    JoKLMNu.          ",
"   OPQGLRS.           ",
"  lTUVLWX..           ",
"........Y             ",
"                      ",
"                      "};
