/* XPM */
static char * pencil2_xpm[] = {
"22 22 71 1",
" 	c None",
".	c #000000",
"+	c #020100",
"@	c #1E1C19",
"#	c #351611",
"$	c #361A14",
"%	c #242424",
"&	c #611E12",
"*	c #3A3219",
"=	c #3B3B3B",
"-	c #473B25",
";	c #434343",
">	c #862F21",
",	c #882F21",
"'	c #514835",
")	c #913120",
"!	c #983525",
"~	c #625134",
"{	c #A23521",
"]	c #63543B",
"^	c #5B5956",
"/	c #6F6B67",
"(	c #6E6E6E",
"_	c #AA5B4F",
":	c #B5584C",
"<	c #CF523E",
"[	c #8D6D68",
"}	c #837370",
"|	c #797979",
"1	c #858173",
"2	c #868479",
"3	c #A07E57",
"4	c #9B8367",
"5	c #AC8C3A",
"6	c #CA7C73",
"7	c #9E9182",
"8	c #A28E8A",
"9	c #9E9493",
"0	c #DB7E70",
"a	c #AB928D",
"b	c #B99569",
"c	c #9E9D9C",
"d	c #B3958F",
"e	c #B39E86",
"f	c #B89F83",
"g	c #B1A29F",
"h	c #BDA88F",
"i	c #BDA5A1",
"j	c #D8A944",
"k	c #BDA6A1",
"l	c #BEAB88",
"m	c #B4ACA3",
"n	c #E39A8E",
"o	c #CBB090",
"p	c #C7B492",
"q	c #E4A49B",
"r	c #B8B8B8",
"s	c #C7B89C",
"t	c #DBC090",
"u	c #D4C49F",
"v	c #CCCCCC",
"w	c #D4CDB7",
"x	c #EACE79",
"y	c #DAD4C1",
"z	c #E3D2B9",
"A	c #D6D6D6",
"B	c #E0D7D6",
"C	c #EFDDA2",
"D	c #E3DCDA",
"E	c #E1E1E1",
"F	c #F7EFD6",
"            ....      ",
"           .g[_:.     ",
"           =a)><.     ",
"          .i&!<n.     ",
"          =d{,0}.     ",
"         .Dk86q.#     ",
"         %EvrB9.      ",
"        .sj5xA.$      ",
"        ;lj5x|.       ",
"       .pj5xC.'       ",
"       ;tj5x2.        ",
"      .uj5xF.*        ",
"      ;zj5x1.         ",
"      (3bbF.*         ",
"     .h4bF1.          ",
"     .efow.-          ",
"     .7my.~           ",
"     ./c.]            ",
"     .^.@             ",
"     ..+              ",
"     ..               ",
"                      "};
